<?xml version="1.0" encoding="utf-8"?>
<!-- Generator: Adobe Illustrator 27.2.0, SVG Export Plug-In . SVG Version: 6.00 Build 0)  -->
<svg version="1.1" id="Capa_1" xmlns="http://www.w3.org/2000/svg" xmlns:xlink="http://www.w3.org/1999/xlink" x="0px" y="0px"
	 viewBox="0 0 2447 1413" style="enable-background:new 0 0 2447 1413;" xml:space="preserve">
<style type="text/css">
	.st0{fill:#FFFFFF;}
</style>
<g>
	<g>
		<path d="M1110.62,279.12c295.96-12.41,719.42,28.52,964.08,208.43c263.86,194.03,112.6,398.31-122.33,509.29
			c-393.37,185.84-1066.53,185.39-1459.58-1c-206.38-97.88-378.43-285.49-154.04-482.02C519.59,355.44,875.65,288.97,1110.62,279.12
			z M1113.79,298.1c-237.63,9.72-644.36,81.14-805.1,271.09c-134.02,158.37-4.66,302.48,138.79,383.36
			c390.2,219.98,1184.77,220.74,1570.2-10.64c237.65-142.66,232.54-332.49-3.17-473.3C1768.87,321.85,1395.57,286.57,1113.79,298.1z
			"/>
		<path class="st0" d="M1113.79,298.1c281.78-11.53,655.08,23.75,900.73,170.5c235.7,140.81,240.82,330.64,3.17,473.3
			c-385.44,231.38-1180,230.62-1570.2,10.64c-143.46-80.87-272.81-224.99-138.79-383.36C469.43,379.24,876.16,307.82,1113.79,298.1z
			 M1154.95,361.37C952,368.91,666.68,414.73,503.76,542.66C341.97,669.7,397.29,809.18,553.11,903.94
			c324.57,197.38,1032.07,199.15,1352.53-7.57c229.96-148.33,139.82-318.22-68.25-418.44
			C1640.66,383.16,1371.67,353.31,1154.95,361.37z"/>
		<g>
			<path d="M1154.95,361.37c216.72-8.05,485.71,21.8,682.45,116.56c208.06,100.22,298.2,270.11,68.25,418.44
				c-320.47,206.71-1027.96,204.94-1352.53,7.57c-155.82-94.76-211.14-234.24-49.35-361.28C666.68,414.73,952,368.91,1154.95,361.37
				z M524.68,557.24c-13.78,3.09-22.39,19.98-24.13,32.83c-4.92,36.17-3.38,154.48,8.62,186.96
				c40.53,109.67,258.26,108.05,292.81-5.97c8.98-29.64,9.2-147.57,5.38-181.27c-5.2-45.83-74.09-46.31-79.22-3.24
				c-5.55,46.66,13.11,152.39-18.78,186.86c-31.29,33.82-105.87,26.61-122.01-20.72c-13.9-40.76,0.14-114.13-4.75-159.75
				C579.05,559.97,555.46,550.32,524.68,557.24z M1066.95,736.89L910.23,566.08c-28.36-18.32-63.74-14.97-68.06,23.7
				c-8.17,73.14,5.49,161.75,0.77,236.51c2.24,34.76,54.6,41.39,72.13,16.65c2.61-3.69,9.43-25.12,9.43-28.54V676.78l156.73,170.81
				c24.8,17.38,63.87,14.86,68.12-20.47c8.86-73.64-5.61-166.66-1.48-242.25c-2.76-32.33-55.35-38.46-71.48-17.3
				c-2.74,3.59-9.42,18.97-9.42,22.22V736.89z M1316.41,557.5c-97.29,10.43-141.38,80.68-132.29,174.61
				c16.36,168.97,314.11,171.63,326.2-9.32C1518.55,599.65,1431.07,545.21,1316.41,557.5z M1566.33,557.34
				c-35.21,5.92-51.38,47.45-30.85,76.75c9.31,13.29,69.79,63.93,69.79,72.73c-23.2,40.54-112.52,78.15-66.51,132.78
				c48.49,57.58,106.81-32.01,140.8-61.55c35.38,26.97,82.48,107.06,132.94,69.51c65.56-48.78-31.28-105.09-58.66-140.75
				c0-10.51,67.33-63.26,75.37-79.81c21.09-43.4-24.91-84.29-69.68-66.46c-19.17,7.63-74.48,75.03-79.98,75.03
				C1644.2,608.62,1617.01,548.83,1566.33,557.34z M1955.39,604.42c0-26.82-21.75-48.55-48.59-48.55s-48.59,21.74-48.59,48.55
				s21.75,48.55,48.59,48.55S1955.39,631.24,1955.39,604.42z"/>
			<path class="st0" d="M1066.95,736.89v-147.1c0-3.25,6.68-18.63,9.42-22.22c16.13-21.16,68.72-15.03,71.48,17.3
				c-4.13,75.59,10.34,168.61,1.48,242.25c-4.25,35.34-43.32,37.86-68.12,20.47L924.49,676.78v137.61c0,3.42-6.81,24.85-9.43,28.54
				c-17.53,24.74-69.88,18.11-72.13-16.65c4.72-74.76-8.94-163.37-0.77-236.51c4.32-38.66,39.7-42.01,68.06-23.7L1066.95,736.89z"/>
			<path class="st0" d="M524.68,557.24c30.78-6.91,54.37,2.74,57.91,35.7c4.89,45.62-9.15,118.99,4.75,159.75
				c16.14,47.33,90.73,54.53,122.01,20.72c31.89-34.47,13.22-140.2,18.78-186.86c5.13-43.07,74.02-42.59,79.22,3.24
				c3.82,33.7,3.61,151.62-5.38,181.27c-34.55,114.02-252.28,115.64-292.81,5.97c-12-32.48-13.54-150.79-8.62-186.96
				C502.29,577.22,510.9,560.33,524.68,557.24z"/>
			<path class="st0" d="M1955.39,604.42c0,26.82-21.75,48.55-48.59,48.55s-48.59-21.74-48.59-48.55s21.75-48.55,48.59-48.55
				S1955.39,577.61,1955.39,604.42z M1945.87,604.2c0-21.61-17.53-39.12-39.15-39.12c-21.62,0-39.15,17.51-39.15,39.12
				c0,21.61,17.53,39.12,39.15,39.12C1928.34,643.32,1945.87,625.8,1945.87,604.2z"/>
			<path d="M1945.87,604.2c0,21.61-17.53,39.12-39.15,39.12c-21.62,0-39.15-17.51-39.15-39.12c0-21.61,17.53-39.12,39.15-39.12
				C1928.34,565.08,1945.87,582.59,1945.87,604.2z M1924.9,622.97c-11.8-16.3-7.3-12.11-3.69-24.51
				c4.12-14.17-19.07-14.93-27.98-13.43l0.04,37.97l11.08-15.86L1924.9,622.97z"/>
			<path class="st0" d="M1924.9,622.97l-20.55-15.83L1893.28,623l-0.04-37.97c8.9-1.49,32.09-0.73,27.98,13.43
				C1917.61,610.86,1913.1,606.67,1924.9,622.97z M1899.56,591.31l-0.03,9.55l15.88,0.04l0.03-9.55L1899.56,591.31z"/>
			
				<rect x="1902.72" y="588.17" transform="matrix(2.780502e-03 -1 1 2.780502e-03 1306.0791 2501.939)" width="9.55" height="15.88"/>
			<g>
				<path class="st0" d="M1316.41,557.5c114.66-12.29,202.14,42.15,193.91,165.29c-12.09,180.95-309.85,178.29-326.2,9.32
					C1175.03,638.18,1219.12,567.93,1316.41,557.5z M1338.55,617.53c-97.46,8.91-94.71,161.72-12.82,175.55
					C1463.1,816.27,1460.38,606.39,1338.55,617.53z"/>
				<path d="M1338.55,617.53c121.83-11.14,124.55,198.74-12.82,175.55C1243.84,779.25,1241.08,626.44,1338.55,617.53z"/>
			</g>
			<g>
				<path class="st0" d="M1566.33,557.34c50.68-8.52,77.88,51.27,113.22,78.25c5.5,0,60.81-67.4,79.98-75.03
					c44.77-17.83,90.77,23.06,69.68,66.46c-8.04,16.55-75.37,69.3-75.37,79.81c27.38,35.66,124.22,91.97,58.66,140.75
					c-50.46,37.55-97.56-42.55-132.94-69.51c-33.99,29.54-92.31,119.13-140.8,61.55c-46.01-54.63,43.31-92.24,66.51-132.78
					c0-8.8-60.47-59.44-69.79-72.73C1514.95,604.79,1531.12,563.26,1566.33,557.34z M1569.39,585.7
					c-8.27,2.48-18.73,19.07-13.35,27.72l93.38,93.41l-90,87.14c-14.84,21.69,11.48,45.7,32.93,29.77l87.2-86.79l87.2,86.78
					c19.41,14.55,46.61-6.3,34.27-27.91l-88-91.71l86.7-84.38c15.56-23.57-7.92-43.65-31.14-31.11l-89.04,85.11
					c-21.72-9.73-78.37-85.4-95.08-88.65C1579.98,584.2,1573.79,584.39,1569.39,585.7z"/>
				<path d="M1569.39,585.7c4.39-1.32,10.58-1.5,15.08-0.63c16.71,3.25,73.36,78.92,95.08,88.65l89.04-85.11
					c23.22-12.54,46.69,7.54,31.14,31.11l-86.7,84.38l88,91.71c12.34,21.61-14.86,42.45-34.27,27.91l-87.2-86.78l-87.2,86.79
					c-21.46,15.94-47.77-8.08-32.93-29.77l90-87.14l-93.38-93.41C1550.66,604.77,1561.12,588.19,1569.39,585.7z"/>
			</g>
		</g>
	</g>
</g>
</svg>
